<mxfile host="app.diagrams.net" modified="2023-07-12T02:50:33.032Z" agent="Mozilla/5.0 (Macintosh; Intel Mac OS X 10_15_7) AppleWebKit/537.36 (KHTML, like Gecko) Chrome/114.0.0.0 Safari/537.36" etag="g7jcsl1qgae_diVZVdx6" version="21.6.1" type="device">
  <diagram id="C5RBs43oDa-KdzZeNtuy" name="Page-1">
    <mxGraphModel dx="4502" dy="1189" grid="0" gridSize="10" guides="1" tooltips="1" connect="1" arrows="1" fold="1" page="0" pageScale="1" pageWidth="827" pageHeight="1169" math="0" shadow="0">
      <root>
        <mxCell id="WIyWlLk6GJQsqaUBKTNV-0" />
        <mxCell id="WIyWlLk6GJQsqaUBKTNV-1" parent="WIyWlLk6GJQsqaUBKTNV-0" />
        <mxCell id="zkfFHV4jXpPFQw0GAbJ--0" value="Descriptive" style="swimlane;fontStyle=0;align=center;verticalAlign=top;childLayout=stackLayout;horizontal=1;startSize=26;horizontalStack=0;resizeParent=1;resizeLast=0;collapsible=1;marginBottom=0;rounded=0;shadow=0;strokeWidth=1;" parent="WIyWlLk6GJQsqaUBKTNV-1" vertex="1">
          <mxGeometry x="-569" y="335" width="315" height="123" as="geometry">
            <mxRectangle x="230" y="140" width="160" height="26" as="alternateBounds" />
          </mxGeometry>
        </mxCell>
        <mxCell id="zkfFHV4jXpPFQw0GAbJ--1" value="-dataFrame: DataFrame" style="text;align=left;verticalAlign=top;spacingLeft=4;spacingRight=4;overflow=hidden;rotatable=0;points=[[0,0.5],[1,0.5]];portConstraint=eastwest;" parent="zkfFHV4jXpPFQw0GAbJ--0" vertex="1">
          <mxGeometry y="26" width="315" height="26" as="geometry" />
        </mxCell>
        <mxCell id="zkfFHV4jXpPFQw0GAbJ--4" value="" style="line;html=1;strokeWidth=1;align=left;verticalAlign=middle;spacingTop=-1;spacingLeft=3;spacingRight=3;rotatable=0;labelPosition=right;points=[];portConstraint=eastwest;" parent="zkfFHV4jXpPFQw0GAbJ--0" vertex="1">
          <mxGeometry y="52" width="315" height="8" as="geometry" />
        </mxCell>
        <mxCell id="zkfFHV4jXpPFQw0GAbJ--5" value="+histogram(columnName: str): void" style="text;align=left;verticalAlign=top;spacingLeft=4;spacingRight=4;overflow=hidden;rotatable=0;points=[[0,0.5],[1,0.5]];portConstraint=eastwest;" parent="zkfFHV4jXpPFQw0GAbJ--0" vertex="1">
          <mxGeometry y="60" width="315" height="26" as="geometry" />
        </mxCell>
        <mxCell id="kjC_jjAUiA1sfUQPgZPP-0" value="+correlation(columnName: str): void" style="text;align=left;verticalAlign=top;spacingLeft=4;spacingRight=4;overflow=hidden;rotatable=0;points=[[0,0.5],[1,0.5]];portConstraint=eastwest;" parent="zkfFHV4jXpPFQw0GAbJ--0" vertex="1">
          <mxGeometry y="86" width="315" height="26" as="geometry" />
        </mxCell>
        <mxCell id="zkfFHV4jXpPFQw0GAbJ--6" value="AIModel" style="swimlane;fontStyle=0;align=center;verticalAlign=top;childLayout=stackLayout;horizontal=1;startSize=26;horizontalStack=0;resizeParent=1;resizeLast=0;collapsible=1;marginBottom=0;rounded=0;shadow=0;strokeWidth=1;" parent="WIyWlLk6GJQsqaUBKTNV-1" vertex="1">
          <mxGeometry x="-861" y="910" width="260" height="554" as="geometry">
            <mxRectangle x="130" y="380" width="160" height="26" as="alternateBounds" />
          </mxGeometry>
        </mxCell>
        <mxCell id="332-bMX3ZeZGIIfF-pfE-11" value="-persist: ModePersist" style="text;align=left;verticalAlign=top;spacingLeft=4;spacingRight=4;overflow=hidden;rotatable=0;points=[[0,0.5],[1,0.5]];portConstraint=eastwest;rounded=0;shadow=0;html=0;" parent="zkfFHV4jXpPFQw0GAbJ--6" vertex="1">
          <mxGeometry y="26" width="260" height="26" as="geometry" />
        </mxCell>
        <mxCell id="xhtKSmDEYLFaD2BkhfNq-0" value="-n_neighbors: int" style="text;align=left;verticalAlign=top;spacingLeft=4;spacingRight=4;overflow=hidden;rotatable=0;points=[[0,0.5],[1,0.5]];portConstraint=eastwest;rounded=0;shadow=0;html=0;" vertex="1" parent="zkfFHV4jXpPFQw0GAbJ--6">
          <mxGeometry y="52" width="260" height="26" as="geometry" />
        </mxCell>
        <mxCell id="332-bMX3ZeZGIIfF-pfE-10" value="-test_size: float" style="text;align=left;verticalAlign=top;spacingLeft=4;spacingRight=4;overflow=hidden;rotatable=0;points=[[0,0.5],[1,0.5]];portConstraint=eastwest;rounded=0;shadow=0;html=0;" parent="zkfFHV4jXpPFQw0GAbJ--6" vertex="1">
          <mxGeometry y="78" width="260" height="26" as="geometry" />
        </mxCell>
        <mxCell id="zkfFHV4jXpPFQw0GAbJ--7" value="-knn: KNeighbirsClassifier" style="text;align=left;verticalAlign=top;spacingLeft=4;spacingRight=4;overflow=hidden;rotatable=0;points=[[0,0.5],[1,0.5]];portConstraint=eastwest;" parent="zkfFHV4jXpPFQw0GAbJ--6" vertex="1">
          <mxGeometry y="104" width="260" height="26" as="geometry" />
        </mxCell>
        <mxCell id="zkfFHV4jXpPFQw0GAbJ--8" value="-X_train: DataFrame" style="text;align=left;verticalAlign=top;spacingLeft=4;spacingRight=4;overflow=hidden;rotatable=0;points=[[0,0.5],[1,0.5]];portConstraint=eastwest;rounded=0;shadow=0;html=0;" parent="zkfFHV4jXpPFQw0GAbJ--6" vertex="1">
          <mxGeometry y="130" width="260" height="26" as="geometry" />
        </mxCell>
        <mxCell id="kjC_jjAUiA1sfUQPgZPP-6" value="-X_test: DataFrame" style="text;align=left;verticalAlign=top;spacingLeft=4;spacingRight=4;overflow=hidden;rotatable=0;points=[[0,0.5],[1,0.5]];portConstraint=eastwest;rounded=0;shadow=0;html=0;" parent="zkfFHV4jXpPFQw0GAbJ--6" vertex="1">
          <mxGeometry y="156" width="260" height="26" as="geometry" />
        </mxCell>
        <mxCell id="kjC_jjAUiA1sfUQPgZPP-5" value="-y_train: Series" style="text;align=left;verticalAlign=top;spacingLeft=4;spacingRight=4;overflow=hidden;rotatable=0;points=[[0,0.5],[1,0.5]];portConstraint=eastwest;rounded=0;shadow=0;html=0;" parent="zkfFHV4jXpPFQw0GAbJ--6" vertex="1">
          <mxGeometry y="182" width="260" height="26" as="geometry" />
        </mxCell>
        <mxCell id="kjC_jjAUiA1sfUQPgZPP-8" value="-y_test: Series" style="text;align=left;verticalAlign=top;spacingLeft=4;spacingRight=4;overflow=hidden;rotatable=0;points=[[0,0.5],[1,0.5]];portConstraint=eastwest;rounded=0;shadow=0;html=0;" parent="zkfFHV4jXpPFQw0GAbJ--6" vertex="1">
          <mxGeometry y="208" width="260" height="26" as="geometry" />
        </mxCell>
        <mxCell id="kjC_jjAUiA1sfUQPgZPP-4" value="-y_pred: ndarray" style="text;align=left;verticalAlign=top;spacingLeft=4;spacingRight=4;overflow=hidden;rotatable=0;points=[[0,0.5],[1,0.5]];portConstraint=eastwest;rounded=0;shadow=0;html=0;" parent="zkfFHV4jXpPFQw0GAbJ--6" vertex="1">
          <mxGeometry y="234" width="260" height="26" as="geometry" />
        </mxCell>
        <mxCell id="kjC_jjAUiA1sfUQPgZPP-7" value="+exists: bool" style="text;align=left;verticalAlign=top;spacingLeft=4;spacingRight=4;overflow=hidden;rotatable=0;points=[[0,0.5],[1,0.5]];portConstraint=eastwest;rounded=0;shadow=0;html=0;" parent="zkfFHV4jXpPFQw0GAbJ--6" vertex="1">
          <mxGeometry y="260" width="260" height="26" as="geometry" />
        </mxCell>
        <mxCell id="kjC_jjAUiA1sfUQPgZPP-3" value="+file: str" style="text;align=left;verticalAlign=top;spacingLeft=4;spacingRight=4;overflow=hidden;rotatable=0;points=[[0,0.5],[1,0.5]];portConstraint=eastwest;rounded=0;shadow=0;html=0;" parent="zkfFHV4jXpPFQw0GAbJ--6" vertex="1">
          <mxGeometry y="286" width="260" height="26" as="geometry" />
        </mxCell>
        <mxCell id="zkfFHV4jXpPFQw0GAbJ--9" value="" style="line;html=1;strokeWidth=1;align=left;verticalAlign=middle;spacingTop=-1;spacingLeft=3;spacingRight=3;rotatable=0;labelPosition=right;points=[];portConstraint=eastwest;" parent="zkfFHV4jXpPFQw0GAbJ--6" vertex="1">
          <mxGeometry y="312" width="260" height="8" as="geometry" />
        </mxCell>
        <mxCell id="kjC_jjAUiA1sfUQPgZPP-15" value="+set_data(data: DataFrame): void" style="text;align=left;verticalAlign=top;spacingLeft=4;spacingRight=4;overflow=hidden;rotatable=0;points=[[0,0.5],[1,0.5]];portConstraint=eastwest;" parent="zkfFHV4jXpPFQw0GAbJ--6" vertex="1">
          <mxGeometry y="320" width="260" height="26" as="geometry" />
        </mxCell>
        <mxCell id="xhtKSmDEYLFaD2BkhfNq-2" value="+set_predict_data(X_test: DataFrame): void" style="text;align=left;verticalAlign=top;spacingLeft=4;spacingRight=4;overflow=hidden;rotatable=0;points=[[0,0.5],[1,0.5]];portConstraint=eastwest;" vertex="1" parent="zkfFHV4jXpPFQw0GAbJ--6">
          <mxGeometry y="346" width="260" height="26" as="geometry" />
        </mxCell>
        <mxCell id="xhtKSmDEYLFaD2BkhfNq-3" value="+train(): void" style="text;align=left;verticalAlign=top;spacingLeft=4;spacingRight=4;overflow=hidden;rotatable=0;points=[[0,0.5],[1,0.5]];portConstraint=eastwest;" vertex="1" parent="zkfFHV4jXpPFQw0GAbJ--6">
          <mxGeometry y="372" width="260" height="26" as="geometry" />
        </mxCell>
        <mxCell id="xhtKSmDEYLFaD2BkhfNq-10" value="+get_predicted_data(): ndarray" style="text;align=left;verticalAlign=top;spacingLeft=4;spacingRight=4;overflow=hidden;rotatable=0;points=[[0,0.5],[1,0.5]];portConstraint=eastwest;" vertex="1" parent="zkfFHV4jXpPFQw0GAbJ--6">
          <mxGeometry y="398" width="260" height="26" as="geometry" />
        </mxCell>
        <mxCell id="xhtKSmDEYLFaD2BkhfNq-8" value="+get_test_data(): tuple(DataFrame, Series)" style="text;align=left;verticalAlign=top;spacingLeft=4;spacingRight=4;overflow=hidden;rotatable=0;points=[[0,0.5],[1,0.5]];portConstraint=eastwest;" vertex="1" parent="zkfFHV4jXpPFQw0GAbJ--6">
          <mxGeometry y="424" width="260" height="26" as="geometry" />
        </mxCell>
        <mxCell id="xhtKSmDEYLFaD2BkhfNq-9" value="+load(): bool" style="text;align=left;verticalAlign=top;spacingLeft=4;spacingRight=4;overflow=hidden;rotatable=0;points=[[0,0.5],[1,0.5]];portConstraint=eastwest;" vertex="1" parent="zkfFHV4jXpPFQw0GAbJ--6">
          <mxGeometry y="450" width="260" height="26" as="geometry" />
        </mxCell>
        <mxCell id="xhtKSmDEYLFaD2BkhfNq-7" value="+save(): bool" style="text;align=left;verticalAlign=top;spacingLeft=4;spacingRight=4;overflow=hidden;rotatable=0;points=[[0,0.5],[1,0.5]];portConstraint=eastwest;" vertex="1" parent="zkfFHV4jXpPFQw0GAbJ--6">
          <mxGeometry y="476" width="260" height="26" as="geometry" />
        </mxCell>
        <mxCell id="xhtKSmDEYLFaD2BkhfNq-6" value="+predict(): void" style="text;align=left;verticalAlign=top;spacingLeft=4;spacingRight=4;overflow=hidden;rotatable=0;points=[[0,0.5],[1,0.5]];portConstraint=eastwest;" vertex="1" parent="zkfFHV4jXpPFQw0GAbJ--6">
          <mxGeometry y="502" width="260" height="26" as="geometry" />
        </mxCell>
        <mxCell id="kjC_jjAUiA1sfUQPgZPP-14" value="-split_data(X: DataFrane, y: series): void" style="text;align=left;verticalAlign=top;spacingLeft=4;spacingRight=4;overflow=hidden;rotatable=0;points=[[0,0.5],[1,0.5]];portConstraint=eastwest;" parent="zkfFHV4jXpPFQw0GAbJ--6" vertex="1">
          <mxGeometry y="528" width="260" height="26" as="geometry" />
        </mxCell>
        <mxCell id="zkfFHV4jXpPFQw0GAbJ--13" value="Plot" style="swimlane;fontStyle=0;align=center;verticalAlign=top;childLayout=stackLayout;horizontal=1;startSize=26;horizontalStack=0;resizeParent=1;resizeLast=0;collapsible=1;marginBottom=0;rounded=0;shadow=0;strokeWidth=1;" parent="WIyWlLk6GJQsqaUBKTNV-1" vertex="1">
          <mxGeometry x="-555" y="511" width="377" height="322" as="geometry">
            <mxRectangle x="340" y="380" width="170" height="26" as="alternateBounds" />
          </mxGeometry>
        </mxCell>
        <mxCell id="kjC_jjAUiA1sfUQPgZPP-23" value="-X_test: DataFrame" style="text;align=left;verticalAlign=top;spacingLeft=4;spacingRight=4;overflow=hidden;rotatable=0;points=[[0,0.5],[1,0.5]];portConstraint=eastwest;" parent="zkfFHV4jXpPFQw0GAbJ--13" vertex="1">
          <mxGeometry y="26" width="377" height="26" as="geometry" />
        </mxCell>
        <mxCell id="kjC_jjAUiA1sfUQPgZPP-25" value="-y_test: Series" style="text;align=left;verticalAlign=top;spacingLeft=4;spacingRight=4;overflow=hidden;rotatable=0;points=[[0,0.5],[1,0.5]];portConstraint=eastwest;" parent="zkfFHV4jXpPFQw0GAbJ--13" vertex="1">
          <mxGeometry y="52" width="377" height="26" as="geometry" />
        </mxCell>
        <mxCell id="kjC_jjAUiA1sfUQPgZPP-22" value="-y_pred: ndarray" style="text;align=left;verticalAlign=top;spacingLeft=4;spacingRight=4;overflow=hidden;rotatable=0;points=[[0,0.5],[1,0.5]];portConstraint=eastwest;" parent="zkfFHV4jXpPFQw0GAbJ--13" vertex="1">
          <mxGeometry y="78" width="377" height="26" as="geometry" />
        </mxCell>
        <mxCell id="kjC_jjAUiA1sfUQPgZPP-24" value="-scatter_plot_len: int" style="text;align=left;verticalAlign=top;spacingLeft=4;spacingRight=4;overflow=hidden;rotatable=0;points=[[0,0.5],[1,0.5]];portConstraint=eastwest;" parent="zkfFHV4jXpPFQw0GAbJ--13" vertex="1">
          <mxGeometry y="104" width="377" height="26" as="geometry" />
        </mxCell>
        <mxCell id="zkfFHV4jXpPFQw0GAbJ--15" value="" style="line;html=1;strokeWidth=1;align=left;verticalAlign=middle;spacingTop=-1;spacingLeft=3;spacingRight=3;rotatable=0;labelPosition=right;points=[];portConstraint=eastwest;" parent="zkfFHV4jXpPFQw0GAbJ--13" vertex="1">
          <mxGeometry y="130" width="377" height="8" as="geometry" />
        </mxCell>
        <mxCell id="kjC_jjAUiA1sfUQPgZPP-33" value="+show(): void" style="text;align=left;verticalAlign=top;spacingLeft=4;spacingRight=4;overflow=hidden;rotatable=0;points=[[0,0.5],[1,0.5]];portConstraint=eastwest;" parent="zkfFHV4jXpPFQw0GAbJ--13" vertex="1">
          <mxGeometry y="138" width="377" height="26" as="geometry" />
        </mxCell>
        <mxCell id="kjC_jjAUiA1sfUQPgZPP-30" value="-plot_confusion_matrix(): void" style="text;align=left;verticalAlign=top;spacingLeft=4;spacingRight=4;overflow=hidden;rotatable=0;points=[[0,0.5],[1,0.5]];portConstraint=eastwest;" parent="zkfFHV4jXpPFQw0GAbJ--13" vertex="1">
          <mxGeometry y="164" width="377" height="26" as="geometry" />
        </mxCell>
        <mxCell id="kjC_jjAUiA1sfUQPgZPP-29" value="-prepate_scatter_data(scatter_plot_len: int): void" style="text;align=left;verticalAlign=top;spacingLeft=4;spacingRight=4;overflow=hidden;rotatable=0;points=[[0,0.5],[1,0.5]];portConstraint=eastwest;" parent="zkfFHV4jXpPFQw0GAbJ--13" vertex="1">
          <mxGeometry y="190" width="377" height="26" as="geometry" />
        </mxCell>
        <mxCell id="kjC_jjAUiA1sfUQPgZPP-20" value="-plot_scatter(): void" style="text;align=left;verticalAlign=top;spacingLeft=4;spacingRight=4;overflow=hidden;rotatable=0;points=[[0,0.5],[1,0.5]];portConstraint=eastwest;" parent="zkfFHV4jXpPFQw0GAbJ--13" vertex="1">
          <mxGeometry y="216" width="377" height="26" as="geometry" />
        </mxCell>
        <mxCell id="kjC_jjAUiA1sfUQPgZPP-28" value="-should_plot_scatter(print_scatter: bool): bool" style="text;align=left;verticalAlign=top;spacingLeft=4;spacingRight=4;overflow=hidden;rotatable=0;points=[[0,0.5],[1,0.5]];portConstraint=eastwest;" parent="zkfFHV4jXpPFQw0GAbJ--13" vertex="1">
          <mxGeometry y="242" width="377" height="26" as="geometry" />
        </mxCell>
        <mxCell id="kjC_jjAUiA1sfUQPgZPP-31" value="-should_plot_confusion_matrix(print_confusion_matrix: bool): void" style="text;align=left;verticalAlign=top;spacingLeft=4;spacingRight=4;overflow=hidden;rotatable=0;points=[[0,0.5],[1,0.5]];portConstraint=eastwest;" parent="zkfFHV4jXpPFQw0GAbJ--13" vertex="1">
          <mxGeometry y="268" width="377" height="26" as="geometry" />
        </mxCell>
        <mxCell id="kjC_jjAUiA1sfUQPgZPP-32" value="-make_layout(fi: Figure): Layout" style="text;align=left;verticalAlign=top;spacingLeft=4;spacingRight=4;overflow=hidden;rotatable=0;points=[[0,0.5],[1,0.5]];portConstraint=eastwest;" parent="zkfFHV4jXpPFQw0GAbJ--13" vertex="1">
          <mxGeometry y="294" width="377" height="26" as="geometry" />
        </mxCell>
        <mxCell id="zkfFHV4jXpPFQw0GAbJ--17" value="ModelPersist" style="swimlane;fontStyle=2;align=center;verticalAlign=top;childLayout=stackLayout;horizontal=1;startSize=26;horizontalStack=0;resizeParent=1;resizeLast=0;collapsible=1;marginBottom=0;rounded=0;shadow=0;strokeWidth=1;" parent="WIyWlLk6GJQsqaUBKTNV-1" vertex="1">
          <mxGeometry x="-1258" y="1010" width="342" height="172" as="geometry">
            <mxRectangle x="480" y="100" width="160" height="26" as="alternateBounds" />
          </mxGeometry>
        </mxCell>
        <mxCell id="zkfFHV4jXpPFQw0GAbJ--18" value="-file_location: str" style="text;align=left;verticalAlign=top;spacingLeft=4;spacingRight=4;overflow=hidden;rotatable=0;points=[[0,0.5],[1,0.5]];portConstraint=eastwest;" parent="zkfFHV4jXpPFQw0GAbJ--17" vertex="1">
          <mxGeometry y="26" width="342" height="26" as="geometry" />
        </mxCell>
        <mxCell id="xhtKSmDEYLFaD2BkhfNq-12" value="-file_name: str" style="text;align=left;verticalAlign=top;spacingLeft=4;spacingRight=4;overflow=hidden;rotatable=0;points=[[0,0.5],[1,0.5]];portConstraint=eastwest;" vertex="1" parent="zkfFHV4jXpPFQw0GAbJ--17">
          <mxGeometry y="52" width="342" height="26" as="geometry" />
        </mxCell>
        <mxCell id="zkfFHV4jXpPFQw0GAbJ--23" value="" style="line;html=1;strokeWidth=1;align=left;verticalAlign=middle;spacingTop=-1;spacingLeft=3;spacingRight=3;rotatable=0;labelPosition=right;points=[];portConstraint=eastwest;" parent="zkfFHV4jXpPFQw0GAbJ--17" vertex="1">
          <mxGeometry y="78" width="342" height="8" as="geometry" />
        </mxCell>
        <mxCell id="zkfFHV4jXpPFQw0GAbJ--24" value="+save_model(model: any): bool" style="text;align=left;verticalAlign=top;spacingLeft=4;spacingRight=4;overflow=hidden;rotatable=0;points=[[0,0.5],[1,0.5]];portConstraint=eastwest;" parent="zkfFHV4jXpPFQw0GAbJ--17" vertex="1">
          <mxGeometry y="86" width="342" height="26" as="geometry" />
        </mxCell>
        <mxCell id="zkfFHV4jXpPFQw0GAbJ--25" value="+load_model(): any" style="text;align=left;verticalAlign=top;spacingLeft=4;spacingRight=4;overflow=hidden;rotatable=0;points=[[0,0.5],[1,0.5]];portConstraint=eastwest;" parent="zkfFHV4jXpPFQw0GAbJ--17" vertex="1">
          <mxGeometry y="112" width="342" height="26" as="geometry" />
        </mxCell>
        <mxCell id="kjC_jjAUiA1sfUQPgZPP-1" value="+model_exists(): bool" style="text;align=left;verticalAlign=top;spacingLeft=4;spacingRight=4;overflow=hidden;rotatable=0;points=[[0,0.5],[1,0.5]];portConstraint=eastwest;" parent="zkfFHV4jXpPFQw0GAbJ--17" vertex="1">
          <mxGeometry y="138" width="342" height="26" as="geometry" />
        </mxCell>
        <mxCell id="kjC_jjAUiA1sfUQPgZPP-21" value="Layout" style="swimlane;fontStyle=0;align=center;verticalAlign=top;childLayout=stackLayout;horizontal=1;startSize=26;horizontalStack=0;resizeParent=1;resizeLast=0;collapsible=1;marginBottom=0;rounded=0;shadow=0;strokeWidth=1;" parent="WIyWlLk6GJQsqaUBKTNV-1" vertex="1">
          <mxGeometry x="-96" y="486" width="160" height="190" as="geometry">
            <mxRectangle x="340" y="380" width="170" height="26" as="alternateBounds" />
          </mxGeometry>
        </mxCell>
        <mxCell id="zkfFHV4jXpPFQw0GAbJ--14" value="-rows: int" style="text;align=left;verticalAlign=top;spacingLeft=4;spacingRight=4;overflow=hidden;rotatable=0;points=[[0,0.5],[1,0.5]];portConstraint=eastwest;" parent="kjC_jjAUiA1sfUQPgZPP-21" vertex="1">
          <mxGeometry y="26" width="160" height="26" as="geometry" />
        </mxCell>
        <mxCell id="kjC_jjAUiA1sfUQPgZPP-19" value="-columns: int" style="text;align=left;verticalAlign=top;spacingLeft=4;spacingRight=4;overflow=hidden;rotatable=0;points=[[0,0.5],[1,0.5]];portConstraint=eastwest;" parent="kjC_jjAUiA1sfUQPgZPP-21" vertex="1">
          <mxGeometry y="52" width="160" height="26" as="geometry" />
        </mxCell>
        <mxCell id="kjC_jjAUiA1sfUQPgZPP-18" value="-index: int" style="text;align=left;verticalAlign=top;spacingLeft=4;spacingRight=4;overflow=hidden;rotatable=0;points=[[0,0.5],[1,0.5]];portConstraint=eastwest;" parent="kjC_jjAUiA1sfUQPgZPP-21" vertex="1">
          <mxGeometry y="78" width="160" height="26" as="geometry" />
        </mxCell>
        <mxCell id="xhtKSmDEYLFaD2BkhfNq-11" value="-fig: Figure" style="text;align=left;verticalAlign=top;spacingLeft=4;spacingRight=4;overflow=hidden;rotatable=0;points=[[0,0.5],[1,0.5]];portConstraint=eastwest;" vertex="1" parent="kjC_jjAUiA1sfUQPgZPP-21">
          <mxGeometry y="104" width="160" height="26" as="geometry" />
        </mxCell>
        <mxCell id="kjC_jjAUiA1sfUQPgZPP-17" value="-gs: GridSpec" style="text;align=left;verticalAlign=top;spacingLeft=4;spacingRight=4;overflow=hidden;rotatable=0;points=[[0,0.5],[1,0.5]];portConstraint=eastwest;" parent="kjC_jjAUiA1sfUQPgZPP-21" vertex="1">
          <mxGeometry y="130" width="160" height="26" as="geometry" />
        </mxCell>
        <mxCell id="kjC_jjAUiA1sfUQPgZPP-26" value="" style="line;html=1;strokeWidth=1;align=left;verticalAlign=middle;spacingTop=-1;spacingLeft=3;spacingRight=3;rotatable=0;labelPosition=right;points=[];portConstraint=eastwest;" parent="kjC_jjAUiA1sfUQPgZPP-21" vertex="1">
          <mxGeometry y="156" width="160" height="8" as="geometry" />
        </mxCell>
        <mxCell id="kjC_jjAUiA1sfUQPgZPP-27" value="+get_ax():  Axes" style="text;align=left;verticalAlign=top;spacingLeft=4;spacingRight=4;overflow=hidden;rotatable=0;points=[[0,0.5],[1,0.5]];portConstraint=eastwest;" parent="kjC_jjAUiA1sfUQPgZPP-21" vertex="1">
          <mxGeometry y="164" width="160" height="26" as="geometry" />
        </mxCell>
        <mxCell id="332-bMX3ZeZGIIfF-pfE-23" style="edgeStyle=orthogonalEdgeStyle;rounded=0;orthogonalLoop=1;jettySize=auto;html=1;entryX=0.5;entryY=1;entryDx=0;entryDy=0;dashed=1;endArrow=block;endFill=0;strokeWidth=1;endSize=16;" parent="WIyWlLk6GJQsqaUBKTNV-1" source="kjC_jjAUiA1sfUQPgZPP-37" target="332-bMX3ZeZGIIfF-pfE-12" edge="1">
          <mxGeometry relative="1" as="geometry" />
        </mxCell>
        <mxCell id="kjC_jjAUiA1sfUQPgZPP-37" value="PGVitalSignsRepository" style="swimlane;fontStyle=2;align=center;verticalAlign=top;childLayout=stackLayout;horizontal=1;startSize=26;horizontalStack=0;resizeParent=1;resizeLast=0;collapsible=1;marginBottom=0;rounded=0;shadow=0;strokeWidth=1;" parent="WIyWlLk6GJQsqaUBKTNV-1" vertex="1">
          <mxGeometry x="-1150.5" y="702" width="231" height="250" as="geometry">
            <mxRectangle x="-340.5" y="418" width="170" height="26" as="alternateBounds" />
          </mxGeometry>
        </mxCell>
        <mxCell id="kjC_jjAUiA1sfUQPgZPP-38" value="-url" style="text;align=left;verticalAlign=top;spacingLeft=4;spacingRight=4;overflow=hidden;rotatable=0;points=[[0,0.5],[1,0.5]];portConstraint=eastwest;" parent="kjC_jjAUiA1sfUQPgZPP-37" vertex="1">
          <mxGeometry y="26" width="231" height="26" as="geometry" />
        </mxCell>
        <mxCell id="kjC_jjAUiA1sfUQPgZPP-39" value="-is_connected" style="text;align=left;verticalAlign=top;spacingLeft=4;spacingRight=4;overflow=hidden;rotatable=0;points=[[0,0.5],[1,0.5]];portConstraint=eastwest;" parent="kjC_jjAUiA1sfUQPgZPP-37" vertex="1">
          <mxGeometry y="52" width="231" height="26" as="geometry" />
        </mxCell>
        <mxCell id="kjC_jjAUiA1sfUQPgZPP-42" value="" style="line;html=1;strokeWidth=1;align=left;verticalAlign=middle;spacingTop=-1;spacingLeft=3;spacingRight=3;rotatable=0;labelPosition=right;points=[];portConstraint=eastwest;" parent="kjC_jjAUiA1sfUQPgZPP-37" vertex="1">
          <mxGeometry y="78" width="231" height="8" as="geometry" />
        </mxCell>
        <mxCell id="kjC_jjAUiA1sfUQPgZPP-48" value="+get_fixture(): DataFrame" style="text;align=left;verticalAlign=top;spacingLeft=4;spacingRight=4;overflow=hidden;rotatable=0;points=[[0,0.5],[1,0.5]];portConstraint=eastwest;" parent="kjC_jjAUiA1sfUQPgZPP-37" vertex="1">
          <mxGeometry y="86" width="231" height="26" as="geometry" />
        </mxCell>
        <mxCell id="kjC_jjAUiA1sfUQPgZPP-47" value="+get_random(limit: int): DataFrame" style="text;align=left;verticalAlign=top;spacingLeft=4;spacingRight=4;overflow=hidden;rotatable=0;points=[[0,0.5],[1,0.5]];portConstraint=eastwest;" parent="kjC_jjAUiA1sfUQPgZPP-37" vertex="1">
          <mxGeometry y="112" width="231" height="26" as="geometry" />
        </mxCell>
        <mxCell id="kjC_jjAUiA1sfUQPgZPP-46" value="+get_all(): DataFrame" style="text;align=left;verticalAlign=top;spacingLeft=4;spacingRight=4;overflow=hidden;rotatable=0;points=[[0,0.5],[1,0.5]];portConstraint=eastwest;" parent="kjC_jjAUiA1sfUQPgZPP-37" vertex="1">
          <mxGeometry y="138" width="231" height="26" as="geometry" />
        </mxCell>
        <mxCell id="kjC_jjAUiA1sfUQPgZPP-43" value="-connect(): Connection" style="text;align=left;verticalAlign=top;spacingLeft=4;spacingRight=4;overflow=hidden;rotatable=0;points=[[0,0.5],[1,0.5]];portConstraint=eastwest;" parent="kjC_jjAUiA1sfUQPgZPP-37" vertex="1">
          <mxGeometry y="164" width="231" height="26" as="geometry" />
        </mxCell>
        <mxCell id="kjC_jjAUiA1sfUQPgZPP-44" value="-close(connection: Connection): void" style="text;align=left;verticalAlign=top;spacingLeft=4;spacingRight=4;overflow=hidden;rotatable=0;points=[[0,0.5],[1,0.5]];portConstraint=eastwest;" parent="kjC_jjAUiA1sfUQPgZPP-37" vertex="1">
          <mxGeometry y="190" width="231" height="26" as="geometry" />
        </mxCell>
        <mxCell id="kjC_jjAUiA1sfUQPgZPP-45" value="-run_query(query: str): DataFrame" style="text;align=left;verticalAlign=top;spacingLeft=4;spacingRight=4;overflow=hidden;rotatable=0;points=[[0,0.5],[1,0.5]];portConstraint=eastwest;" parent="kjC_jjAUiA1sfUQPgZPP-37" vertex="1">
          <mxGeometry y="216" width="231" height="26" as="geometry" />
        </mxCell>
        <mxCell id="kjC_jjAUiA1sfUQPgZPP-69" style="edgeStyle=orthogonalEdgeStyle;rounded=0;orthogonalLoop=1;jettySize=auto;html=1;entryX=0;entryY=0.5;entryDx=0;entryDy=0;endArrow=none;endFill=0;startArrow=diamond;startFill=1;startSize=16;" parent="WIyWlLk6GJQsqaUBKTNV-1" source="kjC_jjAUiA1sfUQPgZPP-24" target="kjC_jjAUiA1sfUQPgZPP-17" edge="1">
          <mxGeometry relative="1" as="geometry" />
        </mxCell>
        <mxCell id="kjC_jjAUiA1sfUQPgZPP-71" value="1" style="edgeLabel;html=1;align=center;verticalAlign=middle;resizable=0;points=[];" parent="kjC_jjAUiA1sfUQPgZPP-69" vertex="1" connectable="0">
          <mxGeometry x="-0.8586" y="-1" relative="1" as="geometry">
            <mxPoint x="8" y="-21" as="offset" />
          </mxGeometry>
        </mxCell>
        <mxCell id="kjC_jjAUiA1sfUQPgZPP-72" value="1" style="edgeLabel;html=1;align=center;verticalAlign=middle;resizable=0;points=[];" parent="kjC_jjAUiA1sfUQPgZPP-69" vertex="1" connectable="0">
          <mxGeometry x="0.7273" y="-1" relative="1" as="geometry">
            <mxPoint x="8" y="-10" as="offset" />
          </mxGeometry>
        </mxCell>
        <mxCell id="kjC_jjAUiA1sfUQPgZPP-73" value="Metrics" style="swimlane;fontStyle=0;align=center;verticalAlign=top;childLayout=stackLayout;horizontal=1;startSize=26;horizontalStack=0;resizeParent=1;resizeLast=0;collapsible=1;marginBottom=0;rounded=0;shadow=0;strokeWidth=1;" parent="WIyWlLk6GJQsqaUBKTNV-1" vertex="1">
          <mxGeometry x="-810" y="341" width="160" height="120" as="geometry">
            <mxRectangle x="480" y="100" width="160" height="26" as="alternateBounds" />
          </mxGeometry>
        </mxCell>
        <mxCell id="kjC_jjAUiA1sfUQPgZPP-80" value="+y_test: ndarray&#xa;" style="text;align=left;verticalAlign=top;spacingLeft=4;spacingRight=4;overflow=hidden;rotatable=0;points=[[0,0.5],[1,0.5]];portConstraint=eastwest;" parent="kjC_jjAUiA1sfUQPgZPP-73" vertex="1">
          <mxGeometry y="26" width="160" height="26" as="geometry" />
        </mxCell>
        <mxCell id="kjC_jjAUiA1sfUQPgZPP-74" value="+y_pred: ndarray&#xa;" style="text;align=left;verticalAlign=top;spacingLeft=4;spacingRight=4;overflow=hidden;rotatable=0;points=[[0,0.5],[1,0.5]];portConstraint=eastwest;" parent="kjC_jjAUiA1sfUQPgZPP-73" vertex="1">
          <mxGeometry y="52" width="160" height="26" as="geometry" />
        </mxCell>
        <mxCell id="kjC_jjAUiA1sfUQPgZPP-75" value="" style="line;html=1;strokeWidth=1;align=left;verticalAlign=middle;spacingTop=-1;spacingLeft=3;spacingRight=3;rotatable=0;labelPosition=right;points=[];portConstraint=eastwest;" parent="kjC_jjAUiA1sfUQPgZPP-73" vertex="1">
          <mxGeometry y="78" width="160" height="8" as="geometry" />
        </mxCell>
        <mxCell id="kjC_jjAUiA1sfUQPgZPP-76" value="+calculate(): void" style="text;align=left;verticalAlign=top;spacingLeft=4;spacingRight=4;overflow=hidden;rotatable=0;points=[[0,0.5],[1,0.5]];portConstraint=eastwest;" parent="kjC_jjAUiA1sfUQPgZPP-73" vertex="1">
          <mxGeometry y="86" width="160" height="26" as="geometry" />
        </mxCell>
        <mxCell id="xhtKSmDEYLFaD2BkhfNq-51" value="1" style="edgeStyle=orthogonalEdgeStyle;rounded=0;orthogonalLoop=1;jettySize=auto;html=1;entryX=0.5;entryY=0;entryDx=0;entryDy=0;endArrow=diamondThin;endFill=1;startSize=8;endSize=16;" edge="1" parent="WIyWlLk6GJQsqaUBKTNV-1" source="332-bMX3ZeZGIIfF-pfE-0" target="zkfFHV4jXpPFQw0GAbJ--6">
          <mxGeometry x="0.6632" y="-12" relative="1" as="geometry">
            <Array as="points">
              <mxPoint x="-731" y="835" />
              <mxPoint x="-731" y="835" />
            </Array>
            <mxPoint as="offset" />
          </mxGeometry>
        </mxCell>
        <mxCell id="xhtKSmDEYLFaD2BkhfNq-62" value="1" style="edgeLabel;html=1;align=center;verticalAlign=middle;resizable=0;points=[];" vertex="1" connectable="0" parent="xhtKSmDEYLFaD2BkhfNq-51">
          <mxGeometry x="-0.0226" y="-1" relative="1" as="geometry">
            <mxPoint x="11" y="-34" as="offset" />
          </mxGeometry>
        </mxCell>
        <mxCell id="xhtKSmDEYLFaD2BkhfNq-65" style="edgeStyle=orthogonalEdgeStyle;rounded=0;orthogonalLoop=1;jettySize=auto;html=1;entryX=0.5;entryY=1;entryDx=0;entryDy=0;endArrow=none;endFill=0;endSize=16;startArrow=diamondThin;startFill=1;startSize=16;" edge="1" parent="WIyWlLk6GJQsqaUBKTNV-1" source="332-bMX3ZeZGIIfF-pfE-0" target="kjC_jjAUiA1sfUQPgZPP-73">
          <mxGeometry relative="1" as="geometry" />
        </mxCell>
        <mxCell id="xhtKSmDEYLFaD2BkhfNq-66" value="1" style="edgeLabel;html=1;align=center;verticalAlign=middle;resizable=0;points=[];" vertex="1" connectable="0" parent="xhtKSmDEYLFaD2BkhfNq-65">
          <mxGeometry x="-0.2618" y="-2" relative="1" as="geometry">
            <mxPoint x="9" y="25" as="offset" />
          </mxGeometry>
        </mxCell>
        <mxCell id="xhtKSmDEYLFaD2BkhfNq-67" value="1" style="edgeLabel;html=1;align=center;verticalAlign=middle;resizable=0;points=[];" vertex="1" connectable="0" parent="xhtKSmDEYLFaD2BkhfNq-65">
          <mxGeometry x="0.5266" y="2" relative="1" as="geometry">
            <mxPoint x="-11" y="-11" as="offset" />
          </mxGeometry>
        </mxCell>
        <mxCell id="332-bMX3ZeZGIIfF-pfE-0" value="Application" style="swimlane;fontStyle=0;align=center;verticalAlign=top;childLayout=stackLayout;horizontal=1;startSize=26;horizontalStack=0;resizeParent=1;resizeLast=0;collapsible=1;marginBottom=0;rounded=0;shadow=0;strokeWidth=1;" parent="WIyWlLk6GJQsqaUBKTNV-1" vertex="1">
          <mxGeometry x="-834" y="564" width="206" height="251" as="geometry">
            <mxRectangle x="480" y="100" width="160" height="26" as="alternateBounds" />
          </mxGeometry>
        </mxCell>
        <mxCell id="332-bMX3ZeZGIIfF-pfE-1" value=" model: AIModel" style="text;align=left;verticalAlign=top;spacingLeft=4;spacingRight=4;overflow=hidden;rotatable=0;points=[[0,0.5],[1,0.5]];portConstraint=eastwest;" parent="332-bMX3ZeZGIIfF-pfE-0" vertex="1">
          <mxGeometry y="26" width="206" height="26" as="geometry" />
        </mxCell>
        <mxCell id="332-bMX3ZeZGIIfF-pfE-2" value="-repository: PGVitalSignsRepository" style="text;align=left;verticalAlign=top;spacingLeft=4;spacingRight=4;overflow=hidden;rotatable=0;points=[[0,0.5],[1,0.5]];portConstraint=eastwest;" parent="332-bMX3ZeZGIIfF-pfE-0" vertex="1">
          <mxGeometry y="52" width="206" height="26" as="geometry" />
        </mxCell>
        <mxCell id="332-bMX3ZeZGIIfF-pfE-3" value="" style="line;html=1;strokeWidth=1;align=left;verticalAlign=middle;spacingTop=-1;spacingLeft=3;spacingRight=3;rotatable=0;labelPosition=right;points=[];portConstraint=eastwest;" parent="332-bMX3ZeZGIIfF-pfE-0" vertex="1">
          <mxGeometry y="78" width="206" height="8" as="geometry" />
        </mxCell>
        <mxCell id="332-bMX3ZeZGIIfF-pfE-5" value="+run(): void&#xa;" style="text;align=left;verticalAlign=top;spacingLeft=4;spacingRight=4;overflow=hidden;rotatable=0;points=[[0,0.5],[1,0.5]];portConstraint=eastwest;" parent="332-bMX3ZeZGIIfF-pfE-0" vertex="1">
          <mxGeometry y="86" width="206" height="26" as="geometry" />
        </mxCell>
        <mxCell id="332-bMX3ZeZGIIfF-pfE-4" value="-ask(message: str): bool" style="text;align=left;verticalAlign=top;spacingLeft=4;spacingRight=4;overflow=hidden;rotatable=0;points=[[0,0.5],[1,0.5]];portConstraint=eastwest;" parent="332-bMX3ZeZGIIfF-pfE-0" vertex="1">
          <mxGeometry y="112" width="206" height="26" as="geometry" />
        </mxCell>
        <mxCell id="332-bMX3ZeZGIIfF-pfE-6" value="-use_trained_model(): void" style="text;align=left;verticalAlign=top;spacingLeft=4;spacingRight=4;overflow=hidden;rotatable=0;points=[[0,0.5],[1,0.5]];portConstraint=eastwest;" parent="332-bMX3ZeZGIIfF-pfE-0" vertex="1">
          <mxGeometry y="138" width="206" height="26" as="geometry" />
        </mxCell>
        <mxCell id="332-bMX3ZeZGIIfF-pfE-7" value="-handle_untrained_model(): void" style="text;align=left;verticalAlign=top;spacingLeft=4;spacingRight=4;overflow=hidden;rotatable=0;points=[[0,0.5],[1,0.5]];portConstraint=eastwest;" parent="332-bMX3ZeZGIIfF-pfE-0" vertex="1">
          <mxGeometry y="164" width="206" height="26" as="geometry" />
        </mxCell>
        <mxCell id="332-bMX3ZeZGIIfF-pfE-8" value="-show_training_metrics(): void" style="text;align=left;verticalAlign=top;spacingLeft=4;spacingRight=4;overflow=hidden;rotatable=0;points=[[0,0.5],[1,0.5]];portConstraint=eastwest;" parent="332-bMX3ZeZGIIfF-pfE-0" vertex="1">
          <mxGeometry y="190" width="206" height="26" as="geometry" />
        </mxCell>
        <mxCell id="332-bMX3ZeZGIIfF-pfE-9" value="-show_plot(): void" style="text;align=left;verticalAlign=top;spacingLeft=4;spacingRight=4;overflow=hidden;rotatable=0;points=[[0,0.5],[1,0.5]];portConstraint=eastwest;" parent="332-bMX3ZeZGIIfF-pfE-0" vertex="1">
          <mxGeometry y="216" width="206" height="26" as="geometry" />
        </mxCell>
        <mxCell id="332-bMX3ZeZGIIfF-pfE-12" value="VitalSignsRepository {abstract}" style="swimlane;fontStyle=2;align=center;verticalAlign=top;childLayout=stackLayout;horizontal=1;startSize=26;horizontalStack=0;resizeParent=1;resizeLast=0;collapsible=1;marginBottom=0;rounded=0;shadow=0;strokeWidth=1;" parent="WIyWlLk6GJQsqaUBKTNV-1" vertex="1">
          <mxGeometry x="-1154" y="461" width="238" height="170" as="geometry">
            <mxRectangle x="340" y="380" width="170" height="26" as="alternateBounds" />
          </mxGeometry>
        </mxCell>
        <mxCell id="332-bMX3ZeZGIIfF-pfE-15" value="" style="line;html=1;strokeWidth=1;align=left;verticalAlign=middle;spacingTop=-1;spacingLeft=3;spacingRight=3;rotatable=0;labelPosition=right;points=[];portConstraint=eastwest;" parent="332-bMX3ZeZGIIfF-pfE-12" vertex="1">
          <mxGeometry y="26" width="238" height="8" as="geometry" />
        </mxCell>
        <mxCell id="332-bMX3ZeZGIIfF-pfE-16" value="+print_columns(DataFrame): void" style="text;align=left;verticalAlign=top;spacingLeft=4;spacingRight=4;overflow=hidden;rotatable=0;points=[[0,0.5],[1,0.5]];portConstraint=eastwest;" parent="332-bMX3ZeZGIIfF-pfE-12" vertex="1">
          <mxGeometry y="34" width="238" height="26" as="geometry" />
        </mxCell>
        <mxCell id="332-bMX3ZeZGIIfF-pfE-22" value="+print_head(DataFrame): void" style="text;align=left;verticalAlign=top;spacingLeft=4;spacingRight=4;overflow=hidden;rotatable=0;points=[[0,0.5],[1,0.5]];portConstraint=eastwest;" parent="332-bMX3ZeZGIIfF-pfE-12" vertex="1">
          <mxGeometry y="60" width="238" height="26" as="geometry" />
        </mxCell>
        <mxCell id="332-bMX3ZeZGIIfF-pfE-17" value="+get_all(): DataFrame" style="text;align=left;verticalAlign=top;spacingLeft=4;spacingRight=4;overflow=hidden;rotatable=0;points=[[0,0.5],[1,0.5]];portConstraint=eastwest;" parent="332-bMX3ZeZGIIfF-pfE-12" vertex="1">
          <mxGeometry y="86" width="238" height="26" as="geometry" />
        </mxCell>
        <mxCell id="332-bMX3ZeZGIIfF-pfE-18" value="+get_random(limit: int): DataFrame" style="text;align=left;verticalAlign=top;spacingLeft=4;spacingRight=4;overflow=hidden;rotatable=0;points=[[0,0.5],[1,0.5]];portConstraint=eastwest;" parent="332-bMX3ZeZGIIfF-pfE-12" vertex="1">
          <mxGeometry y="112" width="238" height="26" as="geometry" />
        </mxCell>
        <mxCell id="332-bMX3ZeZGIIfF-pfE-19" value="+get_fixture(): DataFrame" style="text;align=left;verticalAlign=top;spacingLeft=4;spacingRight=4;overflow=hidden;rotatable=0;points=[[0,0.5],[1,0.5]];portConstraint=eastwest;" parent="332-bMX3ZeZGIIfF-pfE-12" vertex="1">
          <mxGeometry y="138" width="238" height="26" as="geometry" />
        </mxCell>
        <mxCell id="xhtKSmDEYLFaD2BkhfNq-13" value="JoblibModelPersist" style="swimlane;fontStyle=0;align=center;verticalAlign=top;childLayout=stackLayout;horizontal=1;startSize=26;horizontalStack=0;resizeParent=1;resizeLast=0;collapsible=1;marginBottom=0;rounded=0;shadow=0;strokeWidth=1;" vertex="1" parent="WIyWlLk6GJQsqaUBKTNV-1">
          <mxGeometry x="-1258" y="1245" width="342" height="119" as="geometry">
            <mxRectangle x="480" y="100" width="160" height="26" as="alternateBounds" />
          </mxGeometry>
        </mxCell>
        <mxCell id="xhtKSmDEYLFaD2BkhfNq-16" value="" style="line;html=1;strokeWidth=1;align=left;verticalAlign=middle;spacingTop=-1;spacingLeft=3;spacingRight=3;rotatable=0;labelPosition=right;points=[];portConstraint=eastwest;" vertex="1" parent="xhtKSmDEYLFaD2BkhfNq-13">
          <mxGeometry y="26" width="342" height="8" as="geometry" />
        </mxCell>
        <mxCell id="xhtKSmDEYLFaD2BkhfNq-17" value="+save_model(model: KNeighborsClassifier): bool" style="text;align=left;verticalAlign=top;spacingLeft=4;spacingRight=4;overflow=hidden;rotatable=0;points=[[0,0.5],[1,0.5]];portConstraint=eastwest;" vertex="1" parent="xhtKSmDEYLFaD2BkhfNq-13">
          <mxGeometry y="34" width="342" height="26" as="geometry" />
        </mxCell>
        <mxCell id="xhtKSmDEYLFaD2BkhfNq-18" value="+load_model(): KNeighborsClassifier" style="text;align=left;verticalAlign=top;spacingLeft=4;spacingRight=4;overflow=hidden;rotatable=0;points=[[0,0.5],[1,0.5]];portConstraint=eastwest;" vertex="1" parent="xhtKSmDEYLFaD2BkhfNq-13">
          <mxGeometry y="60" width="342" height="26" as="geometry" />
        </mxCell>
        <mxCell id="xhtKSmDEYLFaD2BkhfNq-19" value="+model_exists(): bool" style="text;align=left;verticalAlign=top;spacingLeft=4;spacingRight=4;overflow=hidden;rotatable=0;points=[[0,0.5],[1,0.5]];portConstraint=eastwest;" vertex="1" parent="xhtKSmDEYLFaD2BkhfNq-13">
          <mxGeometry y="86" width="342" height="26" as="geometry" />
        </mxCell>
        <mxCell id="xhtKSmDEYLFaD2BkhfNq-20" style="edgeStyle=orthogonalEdgeStyle;rounded=0;orthogonalLoop=1;jettySize=auto;html=1;entryX=0.5;entryY=1;entryDx=0;entryDy=0;dashed=1;endArrow=block;endFill=0;strokeWidth=1;endSize=16;exitX=0.5;exitY=0;exitDx=0;exitDy=0;" edge="1" parent="WIyWlLk6GJQsqaUBKTNV-1" source="xhtKSmDEYLFaD2BkhfNq-13" target="zkfFHV4jXpPFQw0GAbJ--17">
          <mxGeometry relative="1" as="geometry">
            <mxPoint x="-383" y="397" as="sourcePoint" />
            <mxPoint x="-383" y="300" as="targetPoint" />
          </mxGeometry>
        </mxCell>
        <mxCell id="xhtKSmDEYLFaD2BkhfNq-21" value="CustomLogger" style="swimlane;fontStyle=0;align=center;verticalAlign=top;childLayout=stackLayout;horizontal=1;startSize=26;horizontalStack=0;resizeParent=1;resizeLast=0;collapsible=1;marginBottom=0;rounded=0;shadow=0;strokeWidth=1;" vertex="1" parent="WIyWlLk6GJQsqaUBKTNV-1">
          <mxGeometry x="-555" y="900" width="211" height="66" as="geometry">
            <mxRectangle x="230" y="140" width="160" height="26" as="alternateBounds" />
          </mxGeometry>
        </mxCell>
        <mxCell id="xhtKSmDEYLFaD2BkhfNq-23" value="" style="line;html=1;strokeWidth=1;align=left;verticalAlign=middle;spacingTop=-1;spacingLeft=3;spacingRight=3;rotatable=0;labelPosition=right;points=[];portConstraint=eastwest;" vertex="1" parent="xhtKSmDEYLFaD2BkhfNq-21">
          <mxGeometry y="26" width="211" height="8" as="geometry" />
        </mxCell>
        <mxCell id="xhtKSmDEYLFaD2BkhfNq-24" value="+formart(recors: str): str" style="text;align=left;verticalAlign=top;spacingLeft=4;spacingRight=4;overflow=hidden;rotatable=0;points=[[0,0.5],[1,0.5]];portConstraint=eastwest;" vertex="1" parent="xhtKSmDEYLFaD2BkhfNq-21">
          <mxGeometry y="34" width="211" height="26" as="geometry" />
        </mxCell>
        <mxCell id="xhtKSmDEYLFaD2BkhfNq-26" value="StdoutHandler" style="swimlane;fontStyle=0;align=center;verticalAlign=top;childLayout=stackLayout;horizontal=1;startSize=26;horizontalStack=0;resizeParent=1;resizeLast=0;collapsible=1;marginBottom=0;rounded=0;shadow=0;strokeWidth=1;" vertex="1" parent="WIyWlLk6GJQsqaUBKTNV-1">
          <mxGeometry x="-318" y="898" width="315" height="66" as="geometry">
            <mxRectangle x="230" y="140" width="160" height="26" as="alternateBounds" />
          </mxGeometry>
        </mxCell>
        <mxCell id="xhtKSmDEYLFaD2BkhfNq-27" value="" style="line;html=1;strokeWidth=1;align=left;verticalAlign=middle;spacingTop=-1;spacingLeft=3;spacingRight=3;rotatable=0;labelPosition=right;points=[];portConstraint=eastwest;" vertex="1" parent="xhtKSmDEYLFaD2BkhfNq-26">
          <mxGeometry y="26" width="315" height="8" as="geometry" />
        </mxCell>
        <mxCell id="xhtKSmDEYLFaD2BkhfNq-28" value="+emit(record: str): void" style="text;align=left;verticalAlign=top;spacingLeft=4;spacingRight=4;overflow=hidden;rotatable=0;points=[[0,0.5],[1,0.5]];portConstraint=eastwest;" vertex="1" parent="xhtKSmDEYLFaD2BkhfNq-26">
          <mxGeometry y="34" width="315" height="26" as="geometry" />
        </mxCell>
        <mxCell id="xhtKSmDEYLFaD2BkhfNq-41" style="edgeStyle=orthogonalEdgeStyle;rounded=0;orthogonalLoop=1;jettySize=auto;html=1;exitX=0.25;exitY=0;exitDx=0;exitDy=0;entryX=0.75;entryY=1;entryDx=0;entryDy=0;startArrow=diamondThin;startFill=1;endArrow=none;endFill=0;endSize=10;startSize=16;" edge="1" parent="WIyWlLk6GJQsqaUBKTNV-1" source="xhtKSmDEYLFaD2BkhfNq-29" target="xhtKSmDEYLFaD2BkhfNq-21">
          <mxGeometry relative="1" as="geometry" />
        </mxCell>
        <mxCell id="xhtKSmDEYLFaD2BkhfNq-46" value="1" style="edgeLabel;html=1;align=center;verticalAlign=middle;resizable=0;points=[];" vertex="1" connectable="0" parent="xhtKSmDEYLFaD2BkhfNq-41">
          <mxGeometry x="0.6939" y="-3" relative="1" as="geometry">
            <mxPoint x="-11" as="offset" />
          </mxGeometry>
        </mxCell>
        <mxCell id="xhtKSmDEYLFaD2BkhfNq-47" value="1" style="edgeLabel;html=1;align=center;verticalAlign=middle;resizable=0;points=[];" vertex="1" connectable="0" parent="xhtKSmDEYLFaD2BkhfNq-41">
          <mxGeometry x="-0.1587" y="3" relative="1" as="geometry">
            <mxPoint x="12" y="21" as="offset" />
          </mxGeometry>
        </mxCell>
        <mxCell id="xhtKSmDEYLFaD2BkhfNq-42" style="edgeStyle=orthogonalEdgeStyle;rounded=0;orthogonalLoop=1;jettySize=auto;html=1;exitX=0.75;exitY=0;exitDx=0;exitDy=0;entryX=0.25;entryY=1;entryDx=0;entryDy=0;startArrow=diamondThin;startFill=1;endArrow=none;endFill=0;startSize=16;" edge="1" parent="WIyWlLk6GJQsqaUBKTNV-1" source="xhtKSmDEYLFaD2BkhfNq-29" target="xhtKSmDEYLFaD2BkhfNq-26">
          <mxGeometry relative="1" as="geometry">
            <mxPoint x="-186.58823529411757" y="950.3529411764707" as="targetPoint" />
          </mxGeometry>
        </mxCell>
        <mxCell id="xhtKSmDEYLFaD2BkhfNq-44" value="1" style="edgeLabel;html=1;align=center;verticalAlign=middle;resizable=0;points=[];" vertex="1" connectable="0" parent="xhtKSmDEYLFaD2BkhfNq-42">
          <mxGeometry x="0.6496" y="1" relative="1" as="geometry">
            <mxPoint x="-6" y="-20" as="offset" />
          </mxGeometry>
        </mxCell>
        <mxCell id="xhtKSmDEYLFaD2BkhfNq-45" value="1" style="edgeLabel;html=1;align=center;verticalAlign=middle;resizable=0;points=[];" vertex="1" connectable="0" parent="xhtKSmDEYLFaD2BkhfNq-42">
          <mxGeometry x="-0.7057" y="-2" relative="1" as="geometry">
            <mxPoint x="8" y="2" as="offset" />
          </mxGeometry>
        </mxCell>
        <mxCell id="xhtKSmDEYLFaD2BkhfNq-29" value="LoggerHandler" style="swimlane;fontStyle=0;align=center;verticalAlign=top;childLayout=stackLayout;horizontal=1;startSize=26;horizontalStack=0;resizeParent=1;resizeLast=0;collapsible=1;marginBottom=0;rounded=0;shadow=0;strokeWidth=1;" vertex="1" parent="WIyWlLk6GJQsqaUBKTNV-1">
          <mxGeometry x="-476" y="1048" width="315" height="164" as="geometry">
            <mxRectangle x="230" y="140" width="160" height="26" as="alternateBounds" />
          </mxGeometry>
        </mxCell>
        <mxCell id="xhtKSmDEYLFaD2BkhfNq-34" value="-logger: Logger" style="text;align=left;verticalAlign=top;spacingLeft=4;spacingRight=4;overflow=hidden;rotatable=0;points=[[0,0.5],[1,0.5]];portConstraint=eastwest;" vertex="1" parent="xhtKSmDEYLFaD2BkhfNq-29">
          <mxGeometry y="26" width="315" height="26" as="geometry" />
        </mxCell>
        <mxCell id="xhtKSmDEYLFaD2BkhfNq-31" value="-loggerHandler: StdoutHandler" style="text;align=left;verticalAlign=top;spacingLeft=4;spacingRight=4;overflow=hidden;rotatable=0;points=[[0,0.5],[1,0.5]];portConstraint=eastwest;" vertex="1" parent="xhtKSmDEYLFaD2BkhfNq-29">
          <mxGeometry y="52" width="315" height="26" as="geometry" />
        </mxCell>
        <mxCell id="xhtKSmDEYLFaD2BkhfNq-36" value="-formatter: CustomFormatter" style="text;align=left;verticalAlign=top;spacingLeft=4;spacingRight=4;overflow=hidden;rotatable=0;points=[[0,0.5],[1,0.5]];portConstraint=eastwest;" vertex="1" parent="xhtKSmDEYLFaD2BkhfNq-29">
          <mxGeometry y="78" width="315" height="26" as="geometry" />
        </mxCell>
        <mxCell id="xhtKSmDEYLFaD2BkhfNq-30" value="" style="line;html=1;strokeWidth=1;align=left;verticalAlign=middle;spacingTop=-1;spacingLeft=3;spacingRight=3;rotatable=0;labelPosition=right;points=[];portConstraint=eastwest;" vertex="1" parent="xhtKSmDEYLFaD2BkhfNq-29">
          <mxGeometry y="104" width="315" height="8" as="geometry" />
        </mxCell>
        <mxCell id="xhtKSmDEYLFaD2BkhfNq-39" value="+info(message: str): void" style="text;align=left;verticalAlign=top;spacingLeft=4;spacingRight=4;overflow=hidden;rotatable=0;points=[[0,0.5],[1,0.5]];portConstraint=eastwest;" vertex="1" parent="xhtKSmDEYLFaD2BkhfNq-29">
          <mxGeometry y="112" width="315" height="26" as="geometry" />
        </mxCell>
        <mxCell id="xhtKSmDEYLFaD2BkhfNq-38" value="+error(message: str): void" style="text;align=left;verticalAlign=top;spacingLeft=4;spacingRight=4;overflow=hidden;rotatable=0;points=[[0,0.5],[1,0.5]];portConstraint=eastwest;" vertex="1" parent="xhtKSmDEYLFaD2BkhfNq-29">
          <mxGeometry y="138" width="315" height="26" as="geometry" />
        </mxCell>
        <mxCell id="xhtKSmDEYLFaD2BkhfNq-54" style="edgeStyle=orthogonalEdgeStyle;rounded=0;orthogonalLoop=1;jettySize=auto;html=1;entryX=1;entryY=0.5;entryDx=0;entryDy=0;endArrow=none;endFill=0;startSize=16;sourcePerimeterSpacing=16;endSize=16;exitX=0;exitY=0.5;exitDx=0;exitDy=0;startArrow=diamondThin;startFill=1;" edge="1" parent="WIyWlLk6GJQsqaUBKTNV-1" source="332-bMX3ZeZGIIfF-pfE-8" target="kjC_jjAUiA1sfUQPgZPP-39">
          <mxGeometry relative="1" as="geometry" />
        </mxCell>
        <mxCell id="xhtKSmDEYLFaD2BkhfNq-57" value="1" style="edgeLabel;html=1;align=center;verticalAlign=middle;resizable=0;points=[];" vertex="1" connectable="0" parent="xhtKSmDEYLFaD2BkhfNq-54">
          <mxGeometry x="0.0706" y="-2" relative="1" as="geometry">
            <mxPoint x="-30" y="-11" as="offset" />
          </mxGeometry>
        </mxCell>
        <mxCell id="xhtKSmDEYLFaD2BkhfNq-59" value="1" style="edgeLabel;html=1;align=center;verticalAlign=middle;resizable=0;points=[];" vertex="1" connectable="0" parent="xhtKSmDEYLFaD2BkhfNq-54">
          <mxGeometry x="-0.2882" y="-1" relative="1" as="geometry">
            <mxPoint x="21" y="-10" as="offset" />
          </mxGeometry>
        </mxCell>
        <mxCell id="xhtKSmDEYLFaD2BkhfNq-55" style="edgeStyle=orthogonalEdgeStyle;rounded=0;orthogonalLoop=1;jettySize=auto;html=1;entryX=1;entryY=0.5;entryDx=0;entryDy=0;sourcePerimeterSpacing=16;endArrow=none;endFill=0;startArrow=diamondThin;startFill=1;endSize=16;exitX=0;exitY=0.5;exitDx=0;exitDy=0;startSize=16;" edge="1" parent="WIyWlLk6GJQsqaUBKTNV-1" source="kjC_jjAUiA1sfUQPgZPP-7" target="xhtKSmDEYLFaD2BkhfNq-18">
          <mxGeometry relative="1" as="geometry" />
        </mxCell>
        <mxCell id="xhtKSmDEYLFaD2BkhfNq-60" value="1" style="edgeLabel;html=1;align=center;verticalAlign=middle;resizable=0;points=[];" vertex="1" connectable="0" parent="xhtKSmDEYLFaD2BkhfNq-55">
          <mxGeometry x="-0.726" y="1" relative="1" as="geometry">
            <mxPoint x="-1" y="-8" as="offset" />
          </mxGeometry>
        </mxCell>
        <mxCell id="xhtKSmDEYLFaD2BkhfNq-61" value="1" style="edgeLabel;html=1;align=center;verticalAlign=middle;resizable=0;points=[];" vertex="1" connectable="0" parent="xhtKSmDEYLFaD2BkhfNq-55">
          <mxGeometry x="-0.0411" y="1" relative="1" as="geometry">
            <mxPoint x="-16" y="53" as="offset" />
          </mxGeometry>
        </mxCell>
        <mxCell id="xhtKSmDEYLFaD2BkhfNq-69" style="edgeStyle=orthogonalEdgeStyle;rounded=0;orthogonalLoop=1;jettySize=auto;html=1;entryX=1;entryY=0.5;entryDx=0;entryDy=0;endArrow=diamondThin;endFill=1;startSize=16;endSize=16;" edge="1" parent="WIyWlLk6GJQsqaUBKTNV-1" source="kjC_jjAUiA1sfUQPgZPP-29" target="332-bMX3ZeZGIIfF-pfE-6">
          <mxGeometry relative="1" as="geometry" />
        </mxCell>
      </root>
    </mxGraphModel>
  </diagram>
</mxfile>
